<?xml version="1.0" encoding="UTF-8"?>
<svg id="_レイヤー_1" data-name="レイヤー 1" xmlns="http://www.w3.org/2000/svg" viewBox="0 0 402.72 402.72">
  <defs>
    <style>
      .cls-1 {
        stroke: #3e3a39;
      }

      .cls-1, .cls-2, .cls-3, .cls-4 {
        fill: none;
        stroke-linecap: round;
        stroke-miterlimit: 10;
        stroke-width: 5.67px;
      }

      .cls-2 {
        stroke: #c9caca;
      }

      .cls-3 {
        stroke: #727171;
      }

      .cls-4 {
        stroke: #9fa0a0;
      }
    </style>
  </defs>
  <rect width="402.72" height="402.72" fill="#FFFFFF" />
  <path class="cls-1" d="M45.98,356.48c8.38-3.23,20.35-8.71,32.88-18.03,45.38-33.75,41.05-75.4,64.75-115.17,52.53-88.16,180.55-62.66,208.37-146.81,4.24-12.83,4.78-24.05,4.77-30.23"/>
  <path class="cls-3" d="M180.28,238.54c3.89-4.15,10.37-10.46,19.45-16.62,10.64-7.22,21.77-12.14,65.81-23.98,29.08-7.82,33.32-8.12,43.95-13.16,16.19-7.67,27.92-17.18,35.39-24.14"/>
  <path class="cls-4" d="M157.3,286.09c5.81-4.57,14.95-11.17,27.06-17.37,28.59-14.63,50.37-15.13,87.68-22.88,14.2-2.95,34.59-7.77,59.04-15.68"/>
  <path class="cls-2" d="M135.94,333.71c3.06-1.36,6.12-2.72,9.18-4.07,0,0,0,0,0,0,0,0,30.51-12.51,36.36-14.62,13.11-4.74,63.31-15.52,132.72-22.3"/>
</svg>